<svg width="23" height="23" viewBox="0 0 23 23" fill="none" xmlns="http://www.w3.org/2000/svg">
  <path fill-rule="evenodd" clip-rule="evenodd" d="M11.5 0C5.14873 0 0 5.14873 0 11.5C0 17.8513 5.14873 23 11.5 23C17.8513 23 23 17.8513 23 11.5C23 5.14873 17.8513 0 11.5 0ZM10 6.5C10 5.67157 10.6716 5 11.5 5C12.3284 5 13 5.67157 13 6.5V10H16.5C17.3284 10 18 10.6716 18 11.5C18 12.3284 17.3284 13 16.5 13H13V16.5C13 17.3284 12.3284 18 11.5 18C10.6716 18 10 17.3284 10 16.5V13H6.5C5.67157 13 5 12.3284 5 11.5C5 10.6716 5.67157 10 6.5 10H10V6.5Z" fill="#FF9500"/>
</svg>
