<svg width="27" height="28" viewBox="0 0 27 28" fill="none" xmlns="http://www.w3.org/2000/svg">
  <rect y="0.5" width="27" height="27" rx="6" fill="#FF3B30"/>
  <path fill-rule="evenodd" clip-rule="evenodd" d="M11.0999 5.49971C11.0999 4.94743 10.6522 4.49971 10.0999 4.49971C9.54759 4.49971 9.09987 4.94743 9.09987 5.49971V5.83726C7.87616 5.99743 6.86565 6.46691 6.12635 7.26309C5.20667 8.25351 4.84973 9.59656 4.84973 11.0249V18.2501C4.84973 19.6785 5.20667 21.0215 6.12635 22.0119C7.05848 23.0158 8.42172 23.5003 10.0999 23.5003H16.9001C18.5782 23.5003 19.9415 23.0158 20.8736 22.0119C21.7933 21.0215 22.1502 19.6785 22.1502 18.2501V11.0249C22.1502 9.59656 21.7933 8.25351 20.8736 7.26309C20.1343 6.46691 19.1238 5.99743 17.9001 5.83726V5.49971C17.9001 4.94743 17.4524 4.49971 16.9001 4.49971C16.3478 4.49971 15.9001 4.94743 15.9001 5.49971V5.77475H11.0999V5.49971ZM7.59193 8.62399C7.91065 8.28076 8.38681 7.99703 9.09987 7.86118V8.0498C9.09987 8.60208 9.54759 9.0498 10.0999 9.0498C10.6522 9.0498 11.0999 8.60208 11.0999 8.0498V7.77475H15.9001V8.0498C15.9001 8.60208 16.3478 9.0498 16.9001 9.0498C17.4524 9.0498 17.9001 8.60208 17.9001 8.0498V7.86118C18.6132 7.99703 19.0893 8.28076 19.408 8.62399C19.7979 9.04388 20.0587 9.66701 20.1303 10.5264H6.86968C6.94129 9.66701 7.20204 9.04388 7.59193 8.62399ZM6.84973 12.5264H20.1502V18.2501C20.1502 19.3719 19.8697 20.1539 19.408 20.651C18.9589 21.1348 18.1971 21.5003 16.9001 21.5003H10.0999C8.80292 21.5003 8.0411 21.1348 7.59193 20.651C7.13031 20.1539 6.84973 19.3719 6.84973 18.2501V12.5264ZM10.3493 14.4448C9.79703 14.4448 9.34931 14.8925 9.34931 15.4448C9.34931 15.9971 9.79703 16.4448 10.3493 16.4448H10.3578C10.9101 16.4448 11.3578 15.9971 11.3578 15.4448C11.3578 14.8925 10.9101 14.4448 10.3578 14.4448H10.3493ZM13.4953 14.4448C12.943 14.4448 12.4953 14.8925 12.4953 15.4448C12.4953 15.9971 12.943 16.4448 13.4953 16.4448H13.5038C14.0561 16.4448 14.5038 15.9971 14.5038 15.4448C14.5038 14.8925 14.0561 14.4448 13.5038 14.4448H13.4953ZM16.6404 14.4448C16.0881 14.4448 15.6404 14.8925 15.6404 15.4448C15.6404 15.9971 16.0881 16.4448 16.6404 16.4448H16.648C17.2003 16.4448 17.648 15.9971 17.648 15.4448C17.648 14.8925 17.2003 14.4448 16.648 14.4448H16.6404ZM10.3493 16.9949C9.79703 16.9949 9.34931 17.4426 9.34931 17.9949C9.34931 18.5472 9.79703 18.9949 10.3493 18.9949H10.3578C10.9101 18.9949 11.3578 18.5472 11.3578 17.9949C11.3578 17.4426 10.9101 16.9949 10.3578 16.9949H10.3493ZM13.4953 16.9949C12.943 16.9949 12.4953 17.4426 12.4953 17.9949C12.4953 18.5472 12.943 18.9949 13.4953 18.9949H13.5038C14.0561 18.9949 14.5038 18.5472 14.5038 17.9949C14.5038 17.4426 14.0561 16.9949 13.5038 16.9949H13.4953ZM16.6404 16.9949C16.0881 16.9949 15.6404 17.4426 15.6404 17.9949C15.6404 18.5472 16.0881 18.9949 16.6404 18.9949H16.648C17.2003 18.9949 17.648 18.5472 17.648 17.9949C17.648 17.4426 17.2003 16.9949 16.648 16.9949H16.6404Z" fill="white"/>
</svg>
