<svg width="20" height="20" viewBox="0 0 20 20" fill="none" xmlns="http://www.w3.org/2000/svg">
  <path fill-rule="evenodd" clip-rule="evenodd" d="M6.75 10C6.75 10.6904 6.19036 11.25 5.5 11.25C4.80964 11.25 4.25 10.6904 4.25 10C4.25 9.30964 4.80964 8.75 5.5 8.75C6.19036 8.75 6.75 9.30964 6.75 10ZM11.25 10C11.25 10.6904 10.6904 11.25 10 11.25C9.30964 11.25 8.75 10.6904 8.75 10C8.75 9.30964 9.30964 8.75 10 8.75C10.6904 8.75 11.25 9.30964 11.25 10ZM14.5 11.25C15.1904 11.25 15.75 10.6904 15.75 10C15.75 9.30964 15.1904 8.75 14.5 8.75C13.8096 8.75 13.25 9.30964 13.25 10C13.25 10.6904 13.8096 11.25 14.5 11.25Z" fill="#007AFF"/>
  <rect x="0.75" y="0.75" width="18.5" height="18.5" rx="9.25" stroke="#007AFF" stroke-width="1.5"/>
</svg>