<svg class="outgoing-wrapper__drag-and-drop-btn" width="27" height="27" viewBox="0 0 27 27" fill="none" xmlns="http://www.w3.org/2000/svg">
  <path fill-rule="evenodd" clip-rule="evenodd" d="M4 9.5C4 9.08579 4.33579 8.75 4.75 8.75H22.25C22.6642 8.75 23 9.08579 23 9.5C23 9.91421 22.6642 10.25 22.25 10.25H4.75C4.33579 10.25 4 9.91421 4 9.5ZM4 14C4 13.5858 4.33579 13.25 4.75 13.25H22.25C22.6642 13.25 23 13.5858 23 14C23 14.4142 22.6642 14.75 22.25 14.75H4.75C4.33579 14.75 4 14.4142 4 14ZM4.75 17.75C4.33579 17.75 4 18.0858 4 18.5C4 18.9142 4.33579 19.25 4.75 19.25H22.25C22.6642 19.25 23 18.9142 23 18.5C23 18.0858 22.6642 17.75 22.25 17.75H4.75Z" fill="#C5C5C7"/>
</svg>