<svg width="27" height="27" viewBox="0 0 27 27" fill="none" xmlns="http://www.w3.org/2000/svg">
  <rect y="0.5" width="27" height="27" rx="6" fill="#FFCC00"/>
  <path d="M21.1633 17.9267L18.6854 12.1396C17.8463 10.1763 16.3025 10.0971 15.2654 11.9654L13.7692 14.665C13.0092 16.0346 11.5921 16.1533 10.6104 14.9263L10.4363 14.7046C9.41501 13.4221 7.97418 13.5804 7.23793 15.045L5.87626 17.7763C4.91835 19.6763 6.30376 21.9167 8.42543 21.9167H18.5271C20.5854 21.9167 21.9708 19.8188 21.1633 17.9267ZM9.51793 10.8333C10.1478 10.8333 10.7519 10.5831 11.1973 10.1377C11.6427 9.69232 11.8929 9.08822 11.8929 8.45834C11.8929 7.82845 11.6427 7.22436 11.1973 6.77896C10.7519 6.33356 10.1478 6.08334 9.51793 6.08334C8.88804 6.08334 8.28395 6.33356 7.83855 6.77896C7.39315 7.22436 7.14293 7.82845 7.14293 8.45834C7.14293 9.08822 7.39315 9.69232 7.83855 10.1377C8.28395 10.5831 8.88804 10.8333 9.51793 10.8333V10.8333Z" stroke="white" stroke-width="2" stroke-linecap="round" stroke-linejoin="round"/>
</svg>