<svg width="30" height="30" viewBox="0 0 30 30" fill="none" xmlns="http://www.w3.org/2000/svg">
  <path fill-rule="evenodd" clip-rule="evenodd" d="M11.0127 2.76331C11.3409 2.43515 11.786 2.25079 12.25 2.25079H17.7497C18.2138 2.25079 18.6589 2.43515 18.987 2.76331C19.3152 3.09147 19.4996 3.53655 19.4996 4.00063V5.75051H10.5002V4.00063C10.5002 3.53655 10.6846 3.09147 11.0127 2.76331ZM8.5002 5.75051V4.00063C8.5002 3.00611 8.89527 2.05233 9.5985 1.3491C10.3017 0.645865 11.2555 0.250793 12.25 0.250793H17.7497C18.7442 0.250793 19.698 0.645865 20.4013 1.3491C21.1045 2.05233 21.4996 3.00611 21.4996 4.00063V5.75051H24.6163L24.6243 5.75048L24.6323 5.75051H27.3743C27.9266 5.75051 28.3743 6.19822 28.3743 6.75051C28.3743 7.30279 27.9266 7.75051 27.3743 7.75051H25.6243V25.9994C25.6243 26.9939 25.2293 27.9477 24.526 28.6509C23.8228 29.3541 22.869 29.7492 21.8745 29.7492H8.12528C7.13076 29.7492 6.17697 29.3541 5.47374 28.6509C4.77051 27.9477 4.37544 26.9939 4.37544 25.9994V7.75051H2.62573C2.07345 7.75051 1.62573 7.30279 1.62573 6.75051C1.62573 6.19822 2.07345 5.75051 2.62573 5.75051H5.36742L5.37544 5.75048L5.38345 5.75051H8.5002ZM6.37544 7.75051V25.9994C6.37544 26.4635 6.55979 26.9085 6.88795 27.2367C7.21611 27.5648 7.66119 27.7492 8.12528 27.7492H21.8745C22.3386 27.7492 22.7836 27.5648 23.1118 27.2367C23.44 26.9085 23.6243 26.4635 23.6243 25.9994V7.75051H6.37544ZM12.2502 12.6251C12.8025 12.6251 13.2502 13.0728 13.2502 13.6251V21.8746C13.2502 22.4269 12.8025 22.8746 12.2502 22.8746C11.6979 22.8746 11.2502 22.4269 11.2502 21.8746V13.6251C11.2502 13.0728 11.6979 12.6251 12.2502 12.6251ZM18.7498 13.6251C18.7498 13.0728 18.3021 12.6251 17.7498 12.6251C17.1975 12.6251 16.7498 13.0728 16.7498 13.6251V21.8746C16.7498 22.4269 17.1975 22.8746 17.7498 22.8746C18.3021 22.8746 18.7498 22.4269 18.7498 21.8746V13.6251Z" fill="white"/>
</svg>